<svg xmlns="http://www.w3.org/2000/svg" width="32.847" height="32.944" viewBox="0 0 32.847 32.944">
  <g id="cricket" transform="translate(-0.419 -0.001)">
    <path id="Path_1" data-name="Path 1" d="M6.265,1.061A1.151,1.151,0,0,0,5.848.271,1.173,1.173,0,0,0,4.987.006l-3.5.329A1.17,1.17,0,0,0,.424,1.61L.589,3.362,6.43,2.815Zm0,0" transform="translate(0 0)" fill="#fff"/>
    <path id="Path_2" data-name="Path 2" d="M13.049,88.689a.58.58,0,0,0,.15-.45l-.587-6.228A10.581,10.581,0,0,1,11.523,70.42l-.991-10.5-5.841.547L7.32,88.353a.587.587,0,0,0,.586.531h4.711a.579.579,0,0,0,.431-.195Zm0,0" transform="translate(-3.988 -55.939)" fill="#fff"/>
    <path id="Path_3" data-name="Path 3" d="M202.93,68.36a10.529,10.529,0,0,1,5.865-.018l.042-5.1h-5.865Zm0,0" transform="translate(-189.056 -59.039)" fill="#fff"/>
    <path id="Path_4" data-name="Path 4" d="M114.458,183.791a13.4,13.4,0,0,1-3.326-13.577,9.342,9.342,0,0,0-1.284.876c-.086.31-.166.622-.229.932a.587.587,0,0,1-.574.469.6.6,0,0,1-.117-.012.566.566,0,0,1-.3-.176,9.377,9.377,0,0,0,7.123,15.436.567.567,0,0,1,.059-.346.586.586,0,0,1,.8-.23c.276.152.564.293.852.425a9.266,9.266,0,0,0,2.059-.62,13.41,13.41,0,0,1-5.058-3.177Zm-6.1-6.515a15.363,15.363,0,0,1-.2-2.44v-.31a.608.608,0,0,1,.6-.575.587.587,0,0,1,.575.6v.285a14.242,14.242,0,0,0,.181,2.253.586.586,0,0,1-.486.672.575.575,0,0,1-.094.008A.587.587,0,0,1,108.359,177.277ZM111,182.664a.578.578,0,0,1-.293.078.586.586,0,0,1-.509-.293,15.222,15.222,0,0,1-1.153-2.5.587.587,0,0,1,1.106-.392,14,14,0,0,0,1.065,2.309.586.586,0,0,1-.216.8Zm3.574,3.89a.586.586,0,0,1-.825.08c-.385-.316-.762-.657-1.117-1.013-.293-.29-.576-.6-.847-.918a.587.587,0,1,1,.894-.76c.25.293.513.58.781.848.33.33.678.645,1.033.938a.586.586,0,0,1,.079.825Zm0,0" transform="translate(-98.945 -158.904)" fill="#fff"/>
    <path id="Path_5" data-name="Path 5" d="M196.5,166.544c.256.053.523.087.789.122a9.377,9.377,0,0,0-3.923-14.479h0a.571.571,0,0,1-.332-.12,9.378,9.378,0,0,0-3.139-.547c-.225,0-.448.017-.67.033-.117.239-.235.478-.336.722a.587.587,0,1,1-1.088-.438c.011-.028.025-.055.036-.083a9.306,9.306,0,0,0-1.1.32,12.289,12.289,0,0,0,8.341,16.657,9.439,9.439,0,0,0,1.269-1.023c-.028-.006-.059-.008-.084-.014a.587.587,0,1,1,.24-1.148Zm-9.542-10.262v-.07a11.919,11.919,0,0,1,.2-2.194.587.587,0,1,1,1.153.216,10.736,10.736,0,0,0-.183,1.978.611.611,0,0,1-.578.622h-.008a.564.564,0,0,1-.587-.552Zm1.655,4.74a.587.587,0,0,1-.766-.317,11.581,11.581,0,0,1-.66-2.17.586.586,0,0,1,1.15-.23,10.477,10.477,0,0,0,.593,1.953.587.587,0,0,1-.317.765Zm2.568,3.447a.586.586,0,0,1-.829,0,11.894,11.894,0,0,1-1.435-1.756.587.587,0,1,1,.974-.652,10.718,10.718,0,0,0,1.29,1.584A.586.586,0,0,1,191.178,164.469Zm3.673,2.229a.586.586,0,0,1-.77.309,11.657,11.657,0,0,1-1.991-1.091.586.586,0,0,1,.662-.965,10.407,10.407,0,0,0,1.791.981.586.586,0,0,1,.309.768Zm0,0" transform="translate(-173.045 -141.452)" fill="#fff"/>
    <path id="Path_6" data-name="Path 6" d="M364.106,70.429a10.581,10.581,0,0,1-1.09,11.6l-.589,6.226a.587.587,0,0,0,.586.642h4.711a.587.587,0,0,0,.587-.531l2.627-27.881-5.84-.547Zm0,0" transform="translate(-337.953 -55.951)" fill="#fff"/>
    <path id="Path_7" data-name="Path 7" d="M409.264.337l-3.5-.329a1.167,1.167,0,0,0-1.279,1.056l-.166,1.755,5.84.547.166-1.753A1.173,1.173,0,0,0,409.267.34Zm0,0" transform="translate(-377.062 -0.002)" fill="#fff"/>
    <path id="Path_8" data-name="Path 8" d="M207.989,445.666a10.22,10.22,0,0,1-4.513-.288v2.763a.586.586,0,0,0,.587.586h4.692a.586.586,0,0,0,.587-.586v-2.763a10.466,10.466,0,0,1-1.178.262.579.579,0,0,1-.171.026Zm0,0" transform="translate(-189.566 -415.786)" fill="#fff"/>
    <path id="Path_9" data-name="Path 9" d="M209.571,2.456a1.173,1.173,0,0,0-1.164-1.183l-3.519-.028h-.01a1.173,1.173,0,0,0-1.173,1.163l-.013,1.783h5.865Zm0,0" transform="translate(-189.767 -1.162)" fill="#fff"/>
  </g>
</svg>
